# This file uses centimeters as units for non-parametric coordinates.

mtllib canoe rough.mtl
g default
v -0.349287 0.104500 1.443635
v 0.352177 0.104500 1.443635
v -0.500000 1.052759 2.023951
v 0.500000 1.052759 2.023951
v -0.500000 1.052759 -2.023951
v 0.500000 1.052759 -2.023951
v -0.349287 0.104500 -1.539275
v 0.352177 0.104500 -1.539275
v 0.000000 0.260106 0.000000
v 0.000000 1.052759 2.023951
v 0.500000 1.052759 0.000000
v 0.000000 1.052759 -2.023951
v -0.500000 1.052759 0.000000
v -0.250000 0.265623 1.011976
v -0.500000 1.052759 1.011976
v -0.250000 1.052759 2.023951
v 0.000000 0.265623 1.011976
v -0.250000 0.260106 0.000000
v 0.250000 0.265623 1.011976
v 0.250000 1.052759 2.023951
v 0.500000 1.052759 1.011976
v 0.250000 0.260106 0.000000
v 0.250000 0.260106 -1.011976
v 0.500000 1.052759 -1.011976
v 0.250000 1.052759 -2.023951
v 0.000000 0.260106 -1.011976
v -0.250000 0.260106 -1.011976
v -0.250000 1.052759 -2.023951
v -0.500000 1.052759 -1.011976
v -0.375000 0.464025 0.505988
v -0.375000 0.464025 0.000000
v -0.500000 1.052759 0.505988
v -0.375000 0.464025 1.011976
v -0.250000 0.260106 0.505988
v 0.125000 0.265623 1.517964
v 0.000000 0.265623 1.517964
v 0.125000 1.052759 2.023951
v 0.250000 0.265623 1.517964
v 0.125000 0.265623 1.011976
v 0.375000 0.464025 -0.505988
v 0.375000 0.464025 0.000000
v 0.500000 1.052759 -0.505988
v 0.375000 0.464025 -1.011976
v 0.250000 0.260106 -0.505988
v -0.125000 0.260106 -1.517964
v 0.000000 0.260106 -1.517964
v -0.125000 1.052759 -2.023951
v -0.250000 0.260106 -1.517964
v -0.125000 0.260106 -1.011976
v -0.375000 0.464025 1.517964
v -0.500000 1.052759 1.517964
v -0.375000 1.052759 2.023951
v -0.250000 0.265623 1.517964
v -0.125000 0.265623 1.517964
v -0.125000 1.052759 2.023951
v -0.125000 0.265623 1.011976
v -0.125000 0.260106 0.505988
v 0.000000 0.265623 0.505988
v -0.125000 0.260106 0.000000
v 0.375000 0.464025 1.517964
v 0.375000 1.052759 2.023951
v 0.500000 1.052759 1.517964
v 0.375000 0.464025 1.011976
v 0.375000 0.464025 0.505988
v 0.500000 1.052759 0.505988
v 0.250000 0.265623 0.505988
v 0.125000 0.265623 0.505988
v 0.125000 0.260106 0.000000
v 0.375000 0.464025 -1.517964
v 0.500000 1.052759 -1.517964
v 0.375000 1.052759 -2.023951
v 0.250000 0.260106 -1.517964
v 0.125000 0.260106 -1.517964
v 0.125000 1.052759 -2.023951
v 0.125000 0.260106 -1.011976
v 0.125000 0.260106 -0.505988
v 0.000000 0.260106 -0.505988
v -0.375000 0.464025 -1.517964
v -0.375000 1.052759 -2.023951
v -0.500000 1.052759 -1.517964
v -0.375000 0.464025 -1.011976
v -0.375000 0.464025 -0.505988
v -0.500000 1.052759 -0.505988
v -0.250000 0.260106 -0.505988
v -0.125000 0.260106 -0.505988
vt 0.375000 0.000000
vt 0.625000 0.000000
vt 0.375000 0.250000
vt 0.625000 0.250000
vt 0.375000 0.500000
vt 0.625000 0.500000
vt 0.375000 0.750000
vt 0.625000 0.750000
vt 0.375000 1.000000
vt 0.625000 1.000000
vt 0.875000 0.000000
vt 0.875000 0.250000
vt 0.125000 0.000000
vt 0.125000 0.250000
vt 0.500000 0.375000
vt 0.500000 0.250000
vt 0.625000 0.375000
vt 0.750000 0.250000
vt 0.500000 0.500000
vt 0.250000 0.250000
vt 0.375000 0.375000
vt 0.437500 0.312500
vt 0.312500 0.250000
vt 0.375000 0.312500
vt 0.437500 0.250000
vt 0.500000 0.312500
vt 0.437500 0.375000
vt 0.562500 0.312500
vt 0.562500 0.250000
vt 0.625000 0.312500
vt 0.687500 0.250000
vt 0.562500 0.375000
vt 0.562500 0.437500
vt 0.625000 0.437500
vt 0.812500 0.250000
vt 0.562500 0.500000
vt 0.500000 0.437500
vt 0.437500 0.437500
vt 0.437500 0.500000
vt 0.187500 0.250000
vt 0.375000 0.437500
vt 0.406250 0.343750
vt 0.406250 0.375000
vt 0.281250 0.250000
vt 0.375000 0.343750
vt 0.406250 0.312500
vt 0.437500 0.343750
vt 0.531250 0.281250
vt 0.500000 0.281250
vt 0.531250 0.250000
vt 0.562500 0.281250
vt 0.531250 0.312500
vt 0.593750 0.406250
vt 0.593750 0.375000
vt 0.625000 0.406250
vt 0.781250 0.250000
vt 0.593750 0.437500
vt 0.562500 0.406250
vt 0.468750 0.468750
vt 0.500000 0.468750
vt 0.468750 0.500000
vt 0.437500 0.468750
vt 0.468750 0.437500
vt 0.406250 0.281250
vt 0.343750 0.250000
vt 0.375000 0.281250
vt 0.406250 0.250000
vt 0.437500 0.281250
vt 0.468750 0.281250
vt 0.468750 0.250000
vt 0.468750 0.312500
vt 0.468750 0.343750
vt 0.500000 0.343750
vt 0.468750 0.375000
vt 0.593750 0.281250
vt 0.593750 0.250000
vt 0.625000 0.281250
vt 0.656250 0.250000
vt 0.593750 0.312500
vt 0.593750 0.343750
vt 0.625000 0.343750
vt 0.718750 0.250000
vt 0.562500 0.343750
vt 0.531250 0.343750
vt 0.531250 0.375000
vt 0.593750 0.468750
vt 0.625000 0.468750
vt 0.843750 0.250000
vt 0.593750 0.500000
vt 0.562500 0.468750
vt 0.531250 0.468750
vt 0.531250 0.500000
vt 0.531250 0.437500
vt 0.531250 0.406250
vt 0.500000 0.406250
vt 0.406250 0.468750
vt 0.406250 0.500000
vt 0.156250 0.250000
vt 0.375000 0.468750
vt 0.406250 0.437500
vt 0.406250 0.406250
vt 0.218750 0.250000
vt 0.375000 0.406250
vt 0.437500 0.406250
vt 0.468750 0.406250
vn 0.000000 -0.521990 0.852952
vn 0.000000 -0.521990 0.852952
vn 0.000000 -0.521990 0.852952
vn 0.000000 -0.521990 0.852952
vn 0.000000 -0.521990 0.852952
vn 0.000000 -0.521990 0.852952
vn 0.000000 -0.521990 0.852952
vn 0.000000 -0.521990 0.852952
vn 0.000000 -0.521990 0.852952
vn 0.000000 -0.521990 0.852952
vn 0.000000 -0.521990 0.852952
vn 0.852569 0.522615 0.000000
vn 0.852569 0.522615 0.000000
vn 0.852569 0.522615 0.000000
vn 0.852569 0.522615 0.000000
vn 0.000000 -0.455119 -0.890431
vn 0.000000 -0.455119 -0.890431
vn 0.000000 -0.455119 -0.890431
vn 0.000000 -0.455119 -0.890431
vn 0.000000 -0.455119 -0.890431
vn 0.000000 -0.455119 -0.890431
vn 0.000000 -0.455119 -0.890431
vn 0.000000 -0.455119 -0.890431
vn 0.000000 -0.455119 -0.890431
vn 0.000000 -0.455119 -0.890431
vn 0.000000 -0.455119 -0.890431
vn 0.000000 -1.000000 0.000000
vn 0.000000 -1.000000 0.000000
vn 0.000000 -1.000000 0.000000
vn 0.000000 -1.000000 0.000000
vn 0.988066 -0.154029 0.000000
vn 0.988066 -0.154029 0.000000
vn 0.988066 -0.154029 0.000000
vn 0.988066 -0.154029 0.000000
vn 0.988066 -0.154029 0.000000
vn 0.988066 -0.154029 0.000000
vn 0.988066 -0.154029 0.000000
vn 0.988066 -0.154029 0.000000
vn 0.988066 -0.154029 0.000000
vn 0.988066 -0.154029 0.000000
vn 0.988066 -0.154029 0.000000
vn -0.987604 -0.156966 0.000000
vn -0.987604 -0.156966 0.000000
vn -0.987604 -0.156966 0.000000
vn -0.987604 -0.156966 0.000000
vn -0.987604 -0.156966 0.000000
vn -0.987604 -0.156966 0.000000
vn -0.987604 -0.156966 0.000000
vn -0.987604 -0.156966 0.000000
vn -0.987604 -0.156966 0.000000
vn -0.987604 -0.156966 0.000000
vn -0.987604 -0.156966 0.000000
vn 0.000000 1.000000 0.000000
vn 0.000000 1.000000 0.000000
vn 0.000000 1.000000 0.000000
vn 0.000000 1.000000 0.000000
vn -0.852569 0.522615 0.000000
vn -0.852569 0.522615 0.000000
vn -0.852569 0.522615 0.000000
vn -0.852569 0.522615 0.000000
vn 0.000000 1.000000 0.000000
vn 0.000000 1.000000 0.000000
vn 0.000000 1.000000 0.000000
vn 0.000000 1.000000 0.000000
vn 0.978195 0.207690 0.000000
vn 0.978195 0.207690 0.000000
vn 0.978195 0.207690 0.000000
vn 0.978195 0.207690 0.000000
vn 0.000000 0.540736 -0.841192
vn 0.000000 0.540736 -0.841192
vn 0.000000 0.540736 -0.841192
vn 0.000000 0.540736 -0.841192
vn -0.022059 0.999742 -0.005449
vn -0.022059 0.999742 -0.005449
vn -0.022059 0.999742 -0.005449
vn -0.022059 0.999742 -0.005449
vn -0.425524 0.536188 -0.728994
vn -0.425524 0.536188 -0.728994
vn -0.425524 0.536188 -0.728994
vn -0.425524 0.536188 -0.728994
vn -0.978195 0.207690 0.000000
vn -0.978195 0.207690 0.000000
vn -0.978195 0.207690 0.000000
vn -0.978195 0.207690 0.000000
vn 0.000000 0.999941 -0.010901
vn 0.000000 0.999941 -0.010901
vn 0.000000 0.999941 -0.010901
vn 0.000000 0.999941 -0.010901
vn -0.978195 0.207690 0.000000
vn -0.978195 0.207690 0.000000
vn -0.978195 0.207690 0.000000
vn -0.978195 0.207690 0.000000
vn 0.000000 0.538065 0.842903
vn 0.000000 0.538065 0.842903
vn 0.000000 0.538065 0.842903
vn 0.000000 0.538065 0.842903
vn 0.000000 1.000000 0.000000
vn 0.000000 1.000000 0.000000
vn 0.000000 1.000000 0.000000
vn 0.000000 1.000000 0.000000
vn 0.434222 0.532348 0.726675
vn 0.434222 0.532348 0.726675
vn 0.434222 0.532348 0.726675
vn 0.434222 0.532348 0.726675
vn 0.978195 0.207690 0.000000
vn 0.978195 0.207690 0.000000
vn 0.978195 0.207690 0.000000
vn 0.978195 0.207690 0.000000
vn 0.000000 1.000000 0.000000
vn 0.000000 1.000000 0.000000
vn 0.000000 1.000000 0.000000
vn 0.000000 1.000000 0.000000
vn 0.978195 0.207690 0.000000
vn 0.978195 0.207690 0.000000
vn 0.978195 0.207690 0.000000
vn 0.978195 0.207690 0.000000
vn 0.978195 0.207690 0.000000
vn 0.978195 0.207690 0.000000
vn 0.978195 0.207690 0.000000
vn 0.978195 0.207690 0.000000
vn 0.849369 0.527792 -0.002877
vn 0.849369 0.527792 -0.002877
vn 0.849369 0.527792 -0.002877
vn 0.849369 0.527792 -0.002877
vn 0.000000 0.540736 -0.841192
vn 0.000000 0.540736 -0.841192
vn 0.000000 0.540736 -0.841192
vn 0.000000 0.540736 -0.841192
vn 0.000000 0.540736 -0.841192
vn 0.000000 0.540736 -0.841192
vn 0.000000 0.540736 -0.841192
vn 0.000000 0.540736 -0.841192
vn 0.000000 1.000000 0.000000
vn 0.000000 1.000000 0.000000
vn 0.000000 1.000000 0.000000
vn 0.000000 1.000000 0.000000
vn -0.978195 0.207690 0.000000
vn -0.978195 0.207690 0.000000
vn -0.978195 0.207690 0.000000
vn -0.978195 0.207690 0.000000
vn -0.978195 0.207690 0.000000
vn -0.978195 0.207690 0.000000
vn -0.978195 0.207690 0.000000
vn -0.978195 0.207690 0.000000
vn -0.852569 0.522615 0.000000
vn -0.852569 0.522615 0.000000
vn -0.852569 0.522615 0.000000
vn -0.852569 0.522615 0.000000
vn 0.000000 0.538065 0.842903
vn 0.000000 0.538065 0.842903
vn 0.000000 0.538065 0.842903
vn 0.000000 0.538065 0.842903
vn 0.000000 0.538065 0.842903
vn 0.000000 0.538065 0.842903
vn 0.000000 0.538065 0.842903
vn 0.000000 0.538065 0.842903
vn 0.000000 1.000000 0.000000
vn 0.000000 1.000000 0.000000
vn 0.000000 1.000000 0.000000
vn 0.000000 1.000000 0.000000
vn 0.897539 0.381131 -0.221729
vn 0.897539 0.381131 -0.221729
vn 0.897539 0.381131 -0.221729
vn 0.897539 0.381131 -0.221729
vn 0.425524 0.536188 -0.728994
vn 0.425524 0.536188 -0.728994
vn 0.425524 0.536188 -0.728994
vn 0.425524 0.536188 -0.728994
vn 0.846079 0.533057 0.000000
vn 0.846079 0.533057 0.000000
vn 0.846079 0.533057 0.000000
vn 0.846079 0.533057 0.000000
vn 0.000000 0.540736 -0.841192
vn 0.000000 0.540736 -0.841192
vn 0.000000 0.540736 -0.841192
vn 0.000000 0.540736 -0.841192
vn 0.000000 1.000000 0.000000
vn 0.000000 1.000000 0.000000
vn 0.000000 1.000000 0.000000
vn 0.000000 1.000000 0.000000
vn 0.000000 1.000000 0.000000
vn 0.000000 1.000000 0.000000
vn 0.000000 1.000000 0.000000
vn 0.000000 1.000000 0.000000
vn -0.022059 0.999742 -0.005449
vn -0.022059 0.999742 -0.005449
vn -0.022059 0.999742 -0.005449
vn -0.022059 0.999742 -0.005449
vn 0.000000 1.000000 0.000000
vn 0.000000 1.000000 0.000000
vn 0.000000 1.000000 0.000000
vn 0.000000 1.000000 0.000000
vn 0.000000 0.999941 -0.010901
vn 0.000000 0.999941 -0.010901
vn 0.000000 0.999941 -0.010901
vn 0.000000 0.999941 -0.010901
vn -0.897539 0.381131 -0.221729
vn -0.897539 0.381131 -0.221729
vn -0.897539 0.381131 -0.221729
vn -0.897539 0.381131 -0.221729
vn -0.978195 0.207690 0.000000
vn -0.978195 0.207690 0.000000
vn -0.978195 0.207690 0.000000
vn -0.978195 0.207690 0.000000
vn -0.846079 0.533057 0.000000
vn -0.846079 0.533057 0.000000
vn -0.846079 0.533057 0.000000
vn -0.846079 0.533057 0.000000
vn -0.978195 0.207690 0.000000
vn -0.978195 0.207690 0.000000
vn -0.978195 0.207690 0.000000
vn -0.978195 0.207690 0.000000
vn -0.849369 0.527792 -0.002877
vn -0.849369 0.527792 -0.002877
vn -0.849369 0.527792 -0.002877
vn -0.849369 0.527792 -0.002877
vn -0.846079 0.533057 0.000000
vn -0.846079 0.533057 0.000000
vn -0.846079 0.533057 0.000000
vn -0.846079 0.533057 0.000000
vn 0.000000 0.999941 -0.010901
vn 0.000000 0.999941 -0.010901
vn 0.000000 0.999941 -0.010901
vn 0.000000 0.999941 -0.010901
vn 0.000000 1.000000 0.000000
vn 0.000000 1.000000 0.000000
vn 0.000000 1.000000 0.000000
vn 0.000000 1.000000 0.000000
vn 0.000000 1.000000 0.000000
vn 0.000000 1.000000 0.000000
vn 0.000000 1.000000 0.000000
vn 0.000000 1.000000 0.000000
vn -0.897539 0.381131 0.221729
vn -0.897539 0.381131 0.221729
vn -0.897539 0.381131 0.221729
vn -0.897539 0.381131 0.221729
vn -0.434222 0.532348 0.726675
vn -0.434222 0.532348 0.726675
vn -0.434222 0.532348 0.726675
vn -0.434222 0.532348 0.726675
vn -0.852569 0.522615 0.000000
vn -0.852569 0.522615 0.000000
vn -0.852569 0.522615 0.000000
vn -0.852569 0.522615 0.000000
vn 0.000000 0.538065 0.842903
vn 0.000000 0.538065 0.842903
vn 0.000000 0.538065 0.842903
vn 0.000000 0.538065 0.842903
vn 0.000000 1.000000 0.000000
vn 0.000000 1.000000 0.000000
vn 0.000000 1.000000 0.000000
vn 0.000000 1.000000 0.000000
vn 0.000000 1.000000 0.000000
vn 0.000000 1.000000 0.000000
vn 0.000000 1.000000 0.000000
vn 0.000000 1.000000 0.000000
vn 0.000000 1.000000 0.000000
vn 0.000000 1.000000 0.000000
vn 0.000000 1.000000 0.000000
vn 0.000000 1.000000 0.000000
vn 0.000000 1.000000 0.000000
vn 0.000000 1.000000 0.000000
vn 0.000000 1.000000 0.000000
vn 0.000000 1.000000 0.000000
vn 0.000000 1.000000 0.000000
vn 0.000000 1.000000 0.000000
vn 0.000000 1.000000 0.000000
vn 0.000000 1.000000 0.000000
vn 0.897539 0.381131 0.221729
vn 0.897539 0.381131 0.221729
vn 0.897539 0.381131 0.221729
vn 0.897539 0.381131 0.221729
vn 0.978195 0.207690 0.000000
vn 0.978195 0.207690 0.000000
vn 0.978195 0.207690 0.000000
vn 0.978195 0.207690 0.000000
vn 0.852569 0.522615 0.000000
vn 0.852569 0.522615 0.000000
vn 0.852569 0.522615 0.000000
vn 0.852569 0.522615 0.000000
vn 0.978195 0.207690 0.000000
vn 0.978195 0.207690 0.000000
vn 0.978195 0.207690 0.000000
vn 0.978195 0.207690 0.000000
vn 0.852569 0.522615 0.000000
vn 0.852569 0.522615 0.000000
vn 0.852569 0.522615 0.000000
vn 0.852569 0.522615 0.000000
vn 0.852569 0.522615 0.000000
vn 0.852569 0.522615 0.000000
vn 0.852569 0.522615 0.000000
vn 0.852569 0.522615 0.000000
vn 0.000000 1.000000 0.000000
vn 0.000000 1.000000 0.000000
vn 0.000000 1.000000 0.000000
vn 0.000000 1.000000 0.000000
vn 0.000000 1.000000 0.000000
vn 0.000000 1.000000 0.000000
vn 0.000000 1.000000 0.000000
vn 0.000000 1.000000 0.000000
vn 0.000000 1.000000 0.000000
vn 0.000000 1.000000 0.000000
vn 0.000000 1.000000 0.000000
vn 0.000000 1.000000 0.000000
s off
g pCube1
usemtl initialShadingGroup
f 1/1/1 2/2/2 4/4/3 61/76/4 20/29/5 37/50/6 10/16/7 55/70/8 16/25/9 52/67/10 3/3/11
f 34/47/12 18/27/13 31/43/14 30/42/15
f 5/5/16 79/97/17 28/39/18 47/61/19 12/19/20 74/92/21 25/36/22 71/89/23 6/6/24 8/8/25 7/7/26
f 7/7/27 8/8/28 2/10/29 1/9/30
f 2/2/31 8/11/32 6/12/33 70/88/34 24/35/35 42/56/36 11/18/37 65/82/38 21/31/39 62/78/40 4/4/41
f 7/13/42 1/1/43 3/3/44 51/65/45 15/23/46 32/44/47 13/20/48 83/102/49 29/40/50 80/98/51 5/14/52
f 39/52/53 17/26/54 36/49/55 35/48/56
f 44/58/57 22/32/58 41/54/59 40/53/60
f 49/63/61 26/37/62 46/60/63 45/59/64
f 33/46/65 15/24/66 51/66/67 50/64/68
f 53/68/69 16/25/70 55/70/71 54/69/72
f 56/71/73 17/26/74 58/73/75 57/72/76
f 38/51/77 20/29/78 61/76/79 60/75/80
f 63/79/81 21/30/82 65/81/83 64/80/84
f 66/83/85 22/32/86 68/85/87 67/84/88
f 43/57/89 24/34/90 70/87/91 69/86/92
f 72/90/93 25/36/94 74/92/95 73/91/96
f 75/93/97 26/37/98 77/95/99 76/94/100
f 48/62/101 28/39/102 79/97/103 78/96/104
f 81/100/105 29/41/106 83/103/107 82/101/108
f 84/104/109 18/27/110 59/74/111 85/105/112
f 31/43/113 13/21/114 32/45/115 30/42/116
f 32/45/117 15/24/118 33/46/119 30/42/120
f 33/46/121 14/22/122 34/47/123 30/42/124
f 36/49/125 10/16/126 37/50/127 35/48/128
f 37/50/129 20/29/130 38/51/131 35/48/132
f 38/51/133 19/28/134 39/52/135 35/48/136
f 41/54/137 11/17/138 42/55/139 40/53/140
f 42/55/141 24/34/142 43/57/143 40/53/144
f 43/57/145 23/33/146 44/58/147 40/53/148
f 46/60/149 12/19/150 47/61/151 45/59/152
f 47/61/153 28/39/154 48/62/155 45/59/156
f 48/62/157 27/38/158 49/63/159 45/59/160
f 51/66/161 3/3/162 52/67/163 50/64/164
f 52/67/165 16/25/166 53/68/167 50/64/168
f 53/68/169 14/22/170 33/46/171 50/64/172
f 55/70/173 10/16/174 36/49/175 54/69/176
f 36/49/177 17/26/178 56/71/179 54/69/180
f 56/71/181 14/22/182 53/68/183 54/69/184
f 58/73/185 9/15/186 59/74/187 57/72/188
f 59/74/189 18/27/190 34/47/191 57/72/192
f 34/47/193 14/22/194 56/71/195 57/72/196
f 61/76/197 4/4/198 62/77/199 60/75/200
f 62/77/201 21/30/202 63/79/203 60/75/204
f 63/79/205 19/28/206 38/51/207 60/75/208
f 65/81/209 11/17/210 41/54/211 64/80/212
f 41/54/213 22/32/214 66/83/215 64/80/216
f 66/83/217 19/28/218 63/79/219 64/80/220
f 68/85/221 9/15/222 58/73/223 67/84/224
f 58/73/225 17/26/226 39/52/227 67/84/228
f 39/52/229 19/28/230 66/83/231 67/84/232
f 70/87/233 6/6/234 71/89/235 69/86/236
f 71/89/237 25/36/238 72/90/239 69/86/240
f 72/90/241 23/33/242 43/57/243 69/86/244
f 74/92/245 12/19/246 46/60/247 73/91/248
f 46/60/249 26/37/250 75/93/251 73/91/252
f 75/93/253 23/33/254 72/90/255 73/91/256
f 77/95/257 9/15/258 68/85/259 76/94/260
f 68/85/261 22/32/262 44/58/263 76/94/264
f 44/58/265 23/33/266 75/93/267 76/94/268
f 79/97/269 5/5/270 80/99/271 78/96/272
f 80/99/273 29/41/274 81/100/275 78/96/276
f 81/100/277 27/38/278 48/62/279 78/96/280
f 83/103/281 13/21/282 31/43/283 82/101/284
f 31/43/285 18/27/286 84/104/287 82/101/288
f 84/104/289 27/38/290 81/100/291 82/101/292
f 59/74/293 9/15/294 77/95/295 85/105/296
f 77/95/297 26/37/298 49/63/299 85/105/300
f 49/63/301 27/38/302 84/104/303 85/105/304
